<svg height="512pt" viewBox="0 -64 512 512" width="512pt" xmlns="http://www.w3.org/2000/svg"><path d="m488.453125 376.234375h-464.90625c-8.855469 0-16.03125-7.175781-16.03125-16.03125v-208.40625c0-8.855469 7.175781-16.03125 16.03125-16.03125h464.90625c8.855469 0 16.03125 7.175781 16.03125 16.03125v208.40625c0 8.855469-7.175781 16.03125-16.03125 16.03125zm0 0" fill="#d0e05e"/><path d="m47.59375 352.1875c-8.855469 0-16.03125-7.175781-16.03125-16.03125v-200.390625h-8.015625c-8.855469 0-16.03125 7.175781-16.03125 16.03125v208.40625c0 8.855469 7.175781 16.03125 16.03125 16.03125h464.90625c8.855469 0 16.03125-7.175781 16.03125-16.03125v-8.015625zm0 0" fill="#c4d936"/><path d="m39.578125 167.828125h432.84375v176.34375h-432.84375zm0 0" fill="#f4f0f9"/><path d="m63.625 320.125v-152.296875h-24.046875v176.34375h432.84375v-24.046875zm0 0" fill="#e8e2f3"/><path d="m429.6875 295.078125c-35.414062 0-64.125-28.710937-64.125-64.128906 0-14.757813 5-28.339844 13.378906-39.175781-30.335937 5.082031-53.457031 31.445312-53.457031 63.222656 0 35.417968 28.710937 64.128906 64.125 64.128906 20.660156 0 39.023437-9.78125 50.75-24.949219-3.472656.582031-7.03125.902344-10.671875.902344zm0 0" fill="#ffdb7e"/><path d="m408.296875 304.09375c-35.414063 0-64.125-28.710938-64.125-64.125 0-15.855469 5.757813-30.363281 15.292969-41.550781-20.214844 10.785156-33.980469 32.066406-33.980469 56.578125 0 35.417968 28.710937 64.128906 64.125 64.128906 19.535156 0 37.015625-8.75 48.777344-22.527344-8.972657 4.78125-19.210938 7.496094-30.089844 7.496094zm0 0" fill="#ffd15e"/><path d="m272.03125 223.9375c0 8.855469-7.175781 16.03125-16.03125 16.03125s-16.03125-7.175781-16.03125-16.03125 7.175781-16.03125 16.03125-16.03125 16.03125 7.175781 16.03125 16.03125zm0 0" fill="#bba7da"/><path d="m272.03125 288.0625c0 8.855469-7.175781 16.03125-16.03125 16.03125s-16.03125-7.175781-16.03125-16.03125 7.175781-16.03125 16.03125-16.03125 16.03125 7.175781 16.03125 16.03125zm0 0" fill="#bba7da"/><path d="m196 215.921875-4.695312 28.171875 16.601562 23.242188-23.242188 16.601562-4.695312 28.171875-28.171875-4.695313-23.242187 16.601563-16.601563-23.242187-28.171875-4.695313 4.695312-28.171875-16.601562-23.242188 23.242188-16.601562 4.695312-28.171875 28.171875 4.695313 23.242187-16.601563 16.601563 23.242187zm0 0" fill="#ffdb7e"/><path d="m171.953125 256c0 17.707031-14.355469 32.0625-32.0625 32.0625s-32.0625-14.355469-32.0625-32.0625 14.355469-32.0625 32.0625-32.0625 32.0625 14.355469 32.0625 32.0625zm0 0" fill="#f7ad7d"/><path d="m159.8125 272.03125c-17.707031 0-32.0625-14.355469-32.0625-32.0625 0-5.375 1.332031-10.441406 3.667969-14.890625-13.59375 3.714844-23.589844 16.148437-23.589844 30.921875 0 17.707031 14.355469 32.0625 32.0625 32.0625 12.332031 0 23.03125-6.964844 28.394531-17.171875-2.699218.738281-5.539062 1.140625-8.472656 1.140625zm0 0" fill="#f6a26d"/><path d="m488.453125 128.25h-464.90625c-12.984375 0-23.546875 10.5625-23.546875 23.546875v208.40625c0 12.984375 10.5625 23.546875 23.546875 23.546875h464.90625c12.984375 0 23.546875-10.5625 23.546875-23.546875v-208.40625c0-12.984375-10.5625-23.546875-23.546875-23.546875zm8.515625 231.953125c0 4.695313-3.820312 8.515625-8.515625 8.515625h-464.90625c-4.695313 0-8.515625-3.820312-8.515625-8.515625v-208.40625c0-4.695313 3.820312-8.515625 8.515625-8.515625h464.90625c4.695313 0 8.515625 3.820312 8.515625 8.515625zm0 0"/><path d="m472.421875 160.3125h-40.078125c-4.152344 0-7.515625 3.363281-7.515625 7.515625 0 4.148437 3.363281 7.515625 7.515625 7.515625h32.5625v161.3125h-417.8125v-161.3125h349.679688c4.152343 0 7.515624-3.367188 7.515624-7.515625 0-4.152344-3.363281-7.515625-7.515624-7.515625h-357.195313c-4.152344 0-7.515625 3.363281-7.515625 7.515625v176.34375c0 4.152344 3.363281 7.515625 7.515625 7.515625h432.84375c4.152344 0 7.515625-3.363281 7.515625-7.515625v-176.34375c0-4.152344-3.363281-7.515625-7.515625-7.515625zm0 0"/><path d="m385.390625 187.914062c-1.589844-2.652343-4.636719-4.0625-7.691406-3.550781-34.609375 5.796875-59.726563 35.503907-59.726563 70.632813 0 39.503906 32.136719 71.640625 71.640625 71.640625 22.335938 0 43-10.15625 56.691407-27.863281 4.097656-5.300782-.597657-13.109376-7.1875-12.007813-3.152344.527344-6.324219.796875-9.425782.796875-31.214844 0-56.613281-25.394531-56.613281-56.613281 0-12.628907 4.085937-24.589844 11.808594-34.578125 1.890625-2.449219 2.089843-5.804688.503906-8.457032zm35.695313 114.164063c-9.179688 6.167969-20.050782 9.53125-31.472657 9.53125-31.214843 0-56.613281-25.394531-56.613281-56.613281 0-21.453125 11.855469-40.347656 29.859375-49.9375-3.171875 8.164062-4.808594 16.894531-4.808594 25.890625 0 36.59375 27.574219 66.867187 63.035157 71.128906zm0 0"/><path d="m256 200.390625c-12.984375 0-23.546875 10.5625-23.546875 23.546875s10.5625 23.546875 23.546875 23.546875 23.546875-10.5625 23.546875-23.546875-10.5625-23.546875-23.546875-23.546875zm0 32.0625c-4.695312 0-8.515625-3.820313-8.515625-8.515625s3.820313-8.515625 8.515625-8.515625 8.515625 3.820313 8.515625 8.515625-3.820313 8.515625-8.515625 8.515625zm0 0"/><path d="m256 264.515625c-12.984375 0-23.546875 10.5625-23.546875 23.546875s10.5625 23.546875 23.546875 23.546875 23.546875-10.5625 23.546875-23.546875-10.5625-23.546875-23.546875-23.546875zm0 32.0625c-4.695312 0-8.515625-3.820313-8.515625-8.515625s3.820313-8.515625 8.515625-8.515625 8.515625 3.820313 8.515625 8.515625-3.820313 8.515625-8.515625 8.515625zm0 0"/><path d="m82.546875 303.492188 25.101563 4.183593 14.792968 20.707031c2.375 3.328126 7.152344 4.128907 10.480469 1.746094l20.710937-14.789062 25.101563 4.183594c4.039063.675781 7.976563-2.144532 8.648437-6.175782l4.183594-25.105468 20.710938-14.789063c3.375-2.414063 4.15625-7.105469 1.746094-10.484375l-14.792969-20.707031 4.183593-25.101563c.671876-4.039062-2.140624-7.976562-6.175781-8.648437l-25.105469-4.183594-14.789062-20.710937c-2.378906-3.324219-7.152344-4.125-10.484375-1.746094l-20.707031 14.792968-25.101563-4.183593c-4.039062-.671875-7.976562 2.140625-8.648437 6.175781l-4.1875 25.101562-20.707032 14.792969c-3.375 2.410157-4.160156 7.105469-1.746093 10.480469l14.792969 20.710938-4.183594 25.101562c-.683594 4.09375 2.082031 7.964844 6.175781 8.648438zm16.9375-69.3125c1.621094-1.160157 2.71875-2.914063 3.042969-4.878907l3.460937-20.761719 20.761719 3.460938c1.964844.328125 3.980469-.140625 5.601562-1.296875l17.128907-12.234375 12.234375 17.125c1.15625 1.625 2.910156 2.71875 4.878906 3.046875l20.761719 3.460937-3.460938 20.761719c-.328125 1.964844.140625 3.980469 1.296875 5.601563l12.234375 17.125-17.128906 12.234375c-1.621094 1.15625-2.71875 2.914062-3.042969 4.878906l-3.460937 20.761719-20.761719-3.460938c-1.964844-.328125-3.980469.136719-5.601562 1.296875l-17.128907 12.234375-12.230469-17.128906c-1.160156-1.621094-2.914062-2.714844-4.878906-3.042969l-20.761718-3.460937 3.460937-20.761719c.324219-1.964844-.140625-3.980469-1.300781-5.601563l-12.230469-17.128906zm0 0"/><path d="m139.890625 295.578125c21.824219 0 39.578125-17.753906 39.578125-39.578125s-17.753906-39.578125-39.578125-39.578125c-21.820313 0-39.578125 17.753906-39.578125 39.578125s17.757812 39.578125 39.578125 39.578125zm0-64.125c13.535156 0 24.546875 11.011719 24.546875 24.546875s-11.011719 24.546875-24.546875 24.546875-24.546875-11.011719-24.546875-24.546875 11.011719-24.546875 24.546875-24.546875zm0 0"/><path d="m187.632812 43.347656c18.257813-18.261718 42.539063-28.316406 68.367188-28.316406s50.109375 10.054688 68.367188 28.316406c3.058593 3.058594 8.21875 2.851563 11.027343-.429687 2.519531-2.941407 2.339844-7.460938-.398437-10.195313-21.101563-21.101562-49.15625-32.722656-78.996094-32.722656s-57.894531 11.621094-78.996094 32.722656c-2.894531 2.894532-2.894531 7.730469 0 10.625 2.894532 2.898438 7.730469 2.894532 10.628906 0zm0 0"/><path d="m233.683594 89.402344c-2.894532 2.894531-2.894532 7.730468 0 10.625 2.894531 2.894531 7.730468 2.898437 10.625 0 3.125-3.121094 7.277344-4.839844 11.691406-4.839844s8.566406 1.71875 11.691406 4.839844c3.054688 3.058594 8.214844 2.851562 11.027344-.429688 2.515625-2.941406 2.335938-7.460937-.402344-10.195312-5.960937-5.960938-13.886718-9.246094-22.316406-9.246094s-16.355469 3.28125-22.316406 9.246094zm0 0"/><path d="m301.34375 73.890625c6.570312 0 9.941406-8.199219 5.3125-12.828125-13.53125-13.53125-31.519531-20.984375-50.65625-20.984375s-37.125 7.453125-50.65625 20.984375c-2.894531 2.894531-2.898438 7.730469 0 10.625 2.894531 2.894531 7.730469 2.898438 10.625 0 10.695312-10.691406 24.910156-16.578125 40.03125-16.578125s29.335938 5.886719 40.03125 16.578125c1.464844 1.46875 3.386719 2.203125 5.3125 2.203125zm0 0"/></svg>