<svg id="Flat" height="512" viewBox="0 0 512 512" width="512" xmlns="http://www.w3.org/2000/svg"><path d="m120 216h272a0 0 0 0 1 0 0v144a32 32 0 0 1 -32 32h-208a32 32 0 0 1 -32-32v-144a0 0 0 0 1 0 0z" fill="#9aa3a8"/><g fill="#7e8589"><path d="m192 392h-32-32v32 32h32v-32h32z"/><path d="m320 392h32 32v32 32h-32v-32h-32z"/><path d="m240 392h32v64h-32z"/></g><path d="m256 392a19.777 19.777 0 0 1 -17.689-28.622l17.689-35.378 17.689 35.378a19.777 19.777 0 0 1 -17.689 28.622z" fill="#f7b030"/><path d="m320 392a19.777 19.777 0 0 1 -17.689-28.622l17.689-35.378 17.689 35.378a19.777 19.777 0 0 1 -17.689 28.622z" fill="#f7b030"/><path d="m192 392a19.777 19.777 0 0 1 -17.689-28.622l17.689-35.378 17.689 35.378a19.777 19.777 0 0 1 -17.689 28.622z" fill="#f7b030"/><path d="m104 184h304v32h-304z" fill="#e9eef2"/><path d="m56 216h64v32h-64z" fill="#7e8589"/><path d="m392 216h64v32h-64z" fill="#7e8589"/><path d="m88 456h336v32h-336z" fill="#ad6643"/><path d="m256 160a8 8 0 0 1 -8-8v-16a24.028 24.028 0 0 1 24-24h64a8.009 8.009 0 0 0 8-8v-16a8.009 8.009 0 0 0 -8-8h-160a24.028 24.028 0 0 1 -24-24v-32a8 8 0 0 1 16 0v32a8.009 8.009 0 0 0 8 8h160a24.028 24.028 0 0 1 24 24v16a24.028 24.028 0 0 1 -24 24h-64a8.009 8.009 0 0 0 -8 8v16a8 8 0 0 1 -8 8z" fill="#dadcde"/></svg>