<svg id="Capa_1" enable-background="new 0 0 511.999 511.999" height="512" viewBox="0 0 511.999 511.999" width="512" xmlns="http://www.w3.org/2000/svg"><g><g><path d="m7.499 326.913h497v35l-13.853 26.621-472.864 6.435-10.281-33.053z" fill="#9bd069"/><path d="m504.499 482.151-.012.013c-26.435 29.783-72.952 29.783-99.387 0l-.012-.013-.003.003c-26.435 29.787-72.957 29.788-99.393.001l-.003-.004c-26.436 29.788-72.959 29.788-99.394 0l-.003.003c-26.436 29.787-72.958 29.787-99.393-.001l-.002-.002-.003.003c-26.436 29.787-72.958 29.787-99.393 0l-.002-.002v-120.239l.002.002c26.436 29.788 72.957 29.788 99.393 0l.003-.003.002.002c26.435 29.788 72.957 29.788 99.393.001l.003-.003c26.436 29.788 72.959 29.789 99.394 0l.003.004c26.436 29.787 72.957 29.787 99.393-.001l.003-.003.012.013c26.435 29.783 72.952 29.783 99.387 0l.012-.013" fill="#b1e4f9"/><g><path d="m170.971 220.994v-7.368c0-31.519-25.551-57.07-57.07-57.07-31.519 0-57.07 25.551-57.07 57.07v7.368c-27.56 1.902-49.331 24.845-49.331 52.888 0 29.288 23.743 53.031 53.031 53.031h106.74c29.288 0 53.031-23.743 53.031-53.031-.001-28.042-21.772-50.986-49.331-52.888z" fill="#9bd069"/><path d="m50.23 273.883c0 14.644 5.936 27.908 15.536 37.497 9.588 9.6 22.853 15.536 37.497 15.536h-42.731c-14.644 0-27.908-5.936-37.497-15.536-9.6-9.588-15.536-22.852-15.536-37.497 0-28.039 21.77-50.987 49.333-52.89v-7.364c0-15.762 6.388-30.026 16.714-40.352s24.601-16.714 40.364-16.714c7.554 0 14.775 1.463 21.366 4.14-7.173 2.891-13.621 7.197-18.998 12.574-10.326 10.326-16.714 24.589-16.714 40.352v7.364c-27.564 1.903-49.334 24.85-49.334 52.89z" fill="#6ec17d"/></g><g><path d="m317.585 220.994v-7.368c0-31.519-25.551-57.07-57.07-57.07-31.519 0-57.07 25.551-57.07 57.07v7.368c-27.56 1.902-49.331 24.845-49.331 52.888 0 29.288 23.743 53.031 53.031 53.031h106.74c29.288 0 53.031-23.743 53.031-53.031-.001-28.042-21.772-50.986-49.331-52.888z" fill="#9bd069"/><path d="m196.844 273.883c0 14.644 5.936 27.908 15.536 37.497 9.588 9.6 22.853 15.536 37.497 15.536h-42.731c-14.644 0-27.908-5.936-37.497-15.536-9.6-9.588-15.536-22.852-15.536-37.497 0-28.039 21.77-50.987 49.333-52.89v-7.364c0-15.762 6.388-30.026 16.714-40.352s24.601-16.714 40.364-16.714c7.554 0 14.775 1.463 21.366 4.14-7.173 2.891-13.621 7.197-18.998 12.574-10.326 10.326-16.714 24.589-16.714 40.352v7.364c-27.564 1.903-49.334 24.85-49.334 52.89z" fill="#6ec17d"/></g><g><path d="m455.169 220.994v-7.368c0-31.519-25.551-57.07-57.07-57.07-31.519 0-57.07 25.551-57.07 57.07v7.368c-27.56 1.902-49.331 24.845-49.331 52.888 0 29.288 23.743 53.031 53.031 53.031h106.74c29.288 0 53.031-23.743 53.031-53.031-.001-28.042-21.772-50.986-49.331-52.888z" fill="#9bd069"/><path d="m334.428 273.883c0 14.644 5.936 27.908 15.536 37.497 9.588 9.6 22.853 15.536 37.497 15.536h-42.731c-14.644 0-27.908-5.936-37.497-15.536-9.6-9.588-15.536-22.852-15.536-37.497 0-28.039 21.77-50.987 49.333-52.89v-7.364c0-15.762 6.388-30.026 16.714-40.352s24.601-16.714 40.364-16.714c7.554 0 14.775 1.463 21.366 4.14-7.173 2.891-13.621 7.197-18.998 12.574-10.326 10.326-16.714 24.589-16.714 40.352v7.364c-27.564 1.903-49.334 24.85-49.334 52.89z" fill="#6ec17d"/></g><path d="m504.499 361.913-.012.013c-26.435 29.783-72.952 29.783-99.387 0l-.012-.013-.003.003c-26.435 29.787-72.957 29.788-99.393.001l-.003-.004c-26.436 29.788-72.959 29.788-99.394 0l-.003.003c-26.436 29.787-72.958 29.787-99.393-.001l-.002-.002-.003.003c-26.436 29.787-72.958 29.787-99.393 0l-.002-.002v56.69l.002.002c26.436 29.788 72.957 29.788 99.393 0l.003-.003.002.002c26.435 29.788 72.957 29.788 99.393.001l.003-.003c26.436 29.789 72.959 29.789 99.394 0l.003.004c26.436 29.787 72.957 29.787 99.393-.001l.003-.003.012.013c26.435 29.783 72.952 29.783 99.387 0l.012-.013" fill="#90d8f9"/><circle cx="90.147" cy="63.832" fill="#ffe07d" r="56.331"/><path d="m108.642 117.057c-5.791 2.016-12.019 3.11-18.497 3.11-31.105 0-56.329-25.223-56.329-56.335s25.224-56.329 56.329-56.329c6.477 0 12.705 1.095 18.497 3.111-22.03 7.648-37.839 28.583-37.839 53.218s15.809 45.577 37.839 53.225z" fill="#ffd064"/></g><g><path d="m507.782 411.87c-3.145-1.535-6.842-.662-9.009 1.892-11.176 12.518-27.195 19.694-43.979 19.694-16.749 0-32.737-7.146-43.91-19.616-1.187-1.444-2.885-2.411-4.778-2.669-2.48-.338-4.965.581-6.626 2.452-11.18 12.596-27.249 19.821-44.09 19.822-16.753.001-32.744-7.145-43.916-19.617-1.376-1.663-3.456-2.722-5.784-2.722-2.28 0-4.323 1.02-5.699 2.627-11.183 12.527-27.212 19.708-44.001 19.708-16.84 0-32.906-7.223-44.08-19.817-1.372-1.546-3.325-2.453-5.392-2.514-2.056-.065-4.07.737-5.532 2.198-.105.105-.208.214-.307.326-11.168 12.587-27.234 19.807-44.08 19.807-16.845 0-32.915-7.223-44.089-19.817-1.424-1.604-3.466-2.522-5.61-2.522-2.146 0-4.187.918-5.61 2.523-8.4 9.47-19.341 15.865-31.638 18.493-4.051.866-6.633 4.851-5.767 8.902.864 4.051 4.851 6.63 8.901 5.767 12.842-2.745 24.5-8.752 34.122-17.526 13.528 12.271 31.239 19.181 49.69 19.181 18.46 0 36.175-6.913 49.7-19.188 13.529 12.276 31.24 19.188 49.69 19.188 18.445 0 36.16-6.911 49.698-19.184 13.534 12.276 31.251 19.189 49.703 19.187 18.448-.001 36.161-6.915 49.693-19.189 13.535 12.284 31.254 19.201 49.71 19.201 21.122 0 41.279-9.06 55.304-24.855.452-.51.844-1.099 1.143-1.711 1.816-3.724.265-8.204-3.457-10.021z"/><path d="m13.108 413.622c-2.75-3.097-7.489-3.378-10.588-.629-3.098 2.75-3.379 7.49-.629 10.588 10.282 11.581 23.646 19.524 38.649 22.97.564.13 1.129.192 1.686.192 3.417 0 6.505-2.351 7.303-5.822.928-4.037-1.594-8.061-5.631-8.989-11.943-2.744-22.59-9.075-30.79-18.31z"/><path d="m504.499 319.413h-13.211c12.68-11.103 20.711-27.392 20.711-45.531 0-29.298-21.164-54.184-49.331-59.477v-.779c0-35.604-28.966-64.57-64.57-64.57s-64.57 28.966-64.57 64.57v.779c-1.428.268-2.833.6-4.224.967-1.391-.368-2.793-.704-4.214-.971v-.78c0-10.755-2.701-21.407-7.811-30.803-1.979-3.639-6.533-4.985-10.172-3.006s-4.984 6.533-3.006 10.172c3.918 7.204 5.988 15.378 5.988 23.637v7.37c0 1.032.214 2.016.593 2.915-16.009 10.96-26.485 29.371-26.485 49.976 0 18.138 8.03 34.426 20.708 45.529h-97.767c-12.164 0-23.598-4.735-32.194-13.331-8.599-8.609-13.335-20.044-13.335-32.2 0-23.825 18.601-43.77 42.346-45.407 3.933-.271 6.984-3.541 6.984-7.482v-7.37c0-13.235 5.157-25.682 14.523-35.047 9.365-9.366 21.815-14.523 35.056-14.523 9.044 0 17.901 2.462 25.612 7.12 3.544 2.14 8.155 1.004 10.298-2.542 2.142-3.545 1.003-8.156-2.542-10.297-10.052-6.071-21.59-9.28-33.368-9.28-17.247 0-33.464 6.718-45.663 18.917-12.198 12.198-18.916 28.412-18.916 45.653v.781c-2.986.561-5.887 1.354-8.698 2.338-2.865-1.002-5.795-1.785-8.772-2.342v-.776c0-35.604-28.966-64.57-64.569-64.57-17.248 0-33.465 6.718-45.666 18.919-12.19 12.202-18.904 28.414-18.904 45.651v.781c-28.167 5.29-49.33 30.177-49.33 59.478 0 16.159 6.295 31.358 17.727 42.803.95.95 1.935 1.85 2.935 2.729h-13.162c-4.143 0-7.5 3.358-7.5 7.5s3.357 7.5 7.5 7.5h496.998c4.143 0 7.5-3.358 7.5-7.5s-3.357-7.501-7.499-7.501zm-489.499-45.531c0-23.825 18.601-43.77 42.346-45.407 3.933-.271 6.984-3.541 6.984-7.482v-7.37c0-13.232 5.155-25.68 14.514-35.047 9.365-9.366 21.815-14.523 35.057-14.523 27.333 0 49.569 22.237 49.569 49.57v7.37c0 3.043 1.823 5.679 4.461 6.85-13.063 11.157-21.321 27.737-21.321 46.039 0 16.159 6.294 31.359 17.727 42.803.949.949 1.933 1.849 2.933 2.727h-106.74c-12.164 0-23.599-4.735-32.193-13.331-8.601-8.609-13.337-20.045-13.337-32.199zm329.728 45.531c-25.105 0-45.53-20.425-45.53-45.531 0-23.823 18.601-43.767 42.347-45.406 3.932-.271 6.983-3.541 6.983-7.482v-7.368c0-27.333 22.237-49.57 49.57-49.57s49.57 22.237 49.57 49.57v7.368c0 3.942 3.052 7.211 6.983 7.482 23.746 1.638 42.348 21.582 42.348 45.406 0 25.106-20.425 45.531-45.531 45.531z"/><path d="m90.147 127.663c35.196 0 63.83-28.634 63.83-63.83s-28.634-63.83-63.83-63.83-63.83 28.634-63.83 63.83 28.634 63.83 63.83 63.83zm0-112.66c26.925 0 48.83 21.905 48.83 48.83s-21.905 48.83-48.83 48.83-48.83-21.905-48.83-48.83 21.906-48.83 48.83-48.83z"/><path d="m499.176 476.853c-.104.105-.207.213-.306.325-11.178 12.595-27.247 19.819-44.087 19.819-16.765 0-32.765-7.159-43.936-19.65-.45-.54-.985-1.025-1.601-1.435-3.184-2.123-7.401-1.488-9.838 1.339-11.175 12.548-27.213 19.743-44.019 19.744-16.832 0-32.893-7.216-44.072-19.8-1.407-1.599-3.43-2.524-5.563-2.542-2.175-.016-4.235.9-5.674 2.521-11.179 12.596-27.248 19.82-44.089 19.819-16.84 0-32.909-7.224-44.087-19.819-1.371-1.546-3.321-2.456-5.388-2.517-2.037-.067-4.066.733-5.528 2.195-.104.105-.207.213-.306.325-11.179 12.596-27.248 19.819-44.088 19.819s-32.909-7.224-44.087-19.819c-.099-.112-.203-.222-.308-.327-1.589-1.589-3.809-2.38-6.044-2.159-1.9.188-3.646 1.093-4.892 2.509-11.177 12.581-27.238 19.796-44.067 19.796-16.82 0-32.871-7.207-44.048-19.775-2.625-3.014-7.183-3.443-10.335-.924-3.234 2.588-3.758 7.309-1.17 10.543.08.1.162.198.247.293 14.022 15.8 34.18 24.862 55.305 24.862h.001c18.451 0 36.168-6.915 49.699-19.193 13.532 12.28 31.246 19.193 49.698 19.193h.001c18.451 0 36.168-6.915 49.699-19.193 13.531 12.278 31.245 19.191 49.696 19.191h.001c18.45 0 36.165-6.914 49.696-19.191 13.533 12.279 31.249 19.194 49.702 19.193 18.45 0 36.163-6.913 49.695-19.19 13.532 12.279 31.246 19.193 49.698 19.193 21.097 0 41.233-9.04 55.252-24.802 2.677-2.943 2.592-7.5-.251-10.343-2.925-2.93-7.676-2.929-10.606 0z"/><path d="m57.198 391.764c18.451 0 36.168-6.915 49.699-19.193 13.532 12.279 31.246 19.192 49.698 19.192h.001c18.451 0 36.168-6.915 49.699-19.193 13.531 12.278 31.245 19.191 49.696 19.191h.001c18.45 0 36.166-6.914 49.697-19.191 13.532 12.279 31.248 19.194 49.7 19.193 18.451 0 36.164-6.913 49.696-19.19 13.531 12.279 31.246 19.193 49.698 19.193 21.097 0 41.233-9.04 55.252-24.802 2.677-2.943 2.592-7.5-.251-10.343-2.928-2.929-7.679-2.928-10.608.001-.104.105-.207.213-.306.325-11.178 12.595-27.247 19.819-44.087 19.819-16.765 0-32.765-7.159-43.936-19.65-.45-.54-.985-1.025-1.601-1.435-3.184-2.123-7.401-1.488-9.838 1.339-11.176 12.548-27.214 19.743-44.019 19.743-16.84 0-32.909-7.223-44.088-19.818-.099-.111-.204-.223-.309-.328-1.461-1.461-3.426-2.254-5.527-2.193-2.065.062-4.014.973-5.386 2.518-11.179 12.596-27.248 19.82-44.089 19.819-16.84 0-32.909-7.224-44.087-19.819-1.371-1.546-3.321-2.456-5.388-2.517-2.037-.071-4.066.733-5.528 2.195-.104.105-.207.213-.306.325-11.179 12.595-27.248 19.819-44.088 19.818-16.84 0-32.909-7.224-44.087-19.819-.099-.111-.203-.222-.308-.327-1.589-1.589-3.809-2.38-6.044-2.159-1.9.188-3.646 1.093-4.892 2.509-11.177 12.581-27.238 19.796-44.067 19.796-16.82 0-32.871-7.207-44.048-19.775-2.625-3.013-7.183-3.443-10.335-.924-3.234 2.588-3.758 7.309-1.17 10.543.08.1.162.198.247.293 14.026 15.801 34.183 24.863 55.309 24.864z"/></g></g></svg>