<svg id="Filled" height="512" viewBox="0 0 512 512" width="512" xmlns="http://www.w3.org/2000/svg"><path d="m296 200h128v112h-128z" fill="#e9eef2"/><path d="m456 280-32 32v-112l32-32z" fill="#b6b9ba"/><path d="m424 200h-128l32-32h128z" fill="#e1e3e6"/><path d="m192 336-32 32v-112l32-32z" fill="#b6b9ba"/><path d="m32 256h128v112h-128z" fill="#e1e3e6"/><path d="m160 256h-128l32-32h128z" fill="#d0d2d4"/><path d="m229.775 163.431h124.451v113.137h-124.451z" fill="#e1e3e6" transform="matrix(.707 -.707 .707 .707 -70.039 270.912)"/><path d="m376 168v48l-80-80v-48z" fill="#b6b9ba"/><path d="m296 136-88 88v-48l88-88z" fill="#e9eef2"/><path d="m160 312h128v112h-128z" fill="#e9eef2"/><path d="m320 392-32 32v-112l32-32z" fill="#b6b9ba"/><path d="m288 312h-128l32-32h128z" fill="#d0d2d4"/><path d="m320 272h128v112h-128z" fill="#e9eef2"/><path d="m480 352-32 32v-112l32-32z" fill="#b6b9ba"/><path d="m448 272h-128l32-32h128z" fill="#d0d2d4"/><circle cx="176" cy="192" fill="#eb423f" r="64"/><path d="m24 256v112a8 8 0 0 0 8 8h120v48a8 8 0 0 0 8 8h128a8 8 0 0 0 5.657-2.343l32-32a8 8 0 0 0 2.343-5.657h120a8 8 0 0 0 5.657-2.343l32-32a8 8 0 0 0 2.343-5.657v-112h-.019a7.943 7.943 0 0 0 -7.981-8h-16v-64h-.019a7.943 7.943 0 0 0 -7.981-8h-76.686l-77.657-77.657a7.941 7.941 0 0 0 -11.3.014l-.014-.014-61.168 61.168a71.97 71.97 0 0 0 -121.047 72.489h-44.128a8 8 0 0 0 -5.657 2.343l-32 32a7.976 7.976 0 0 0 -2.343 5.657zm16 104v-96h112v96zm136-96a72.383 72.383 0 0 0 8-.455v13.141l-16 16v-29.141a72.383 72.383 0 0 0 8 .455zm44.906-15.78 23.78 23.78h-44.686v-12.128a71.963 71.963 0 0 0 20.906-11.652zm-52.906 119.78v-48h112v96h-112zm116.686-64h-105.372l16-16h105.372zm96.971-82.343-.014-.014a7.98 7.98 0 0 0 2.357-5.643v-8h32v24h-44.686zm-26.343 26.343h105.372l-16 16h-105.372zm-43.314 140.687-16 16v-89.374l16-16zm16-108.687h112v96h-112zm128 84.687v-89.373l16-16v89.373zm-24-132.687v-28.686l16-16v44.686zm-11.313-40h-36.687v-16h52.687zm-116.687-84.687 64 64v25.374l-64-64zm60.686 108.687-56 56h-41.372l-35.094-35.094a71.627 71.627 0 0 0 15.694-41.506l48.086-48.086zm-76.686-108.686v25.372l-42.1 42.1a71.5 71.5 0 0 0 -7.225-18.147zm-112 28.686a56 56 0 1 1 -56 56 56.063 56.063 0 0 1 56-56zm-108.687 96h48.854a72.571 72.571 0 0 0 14.648 16h-79.5z"/><path d="m146.343 221.657a8 8 0 0 0 11.314 0l18.343-18.343 18.343 18.343a8 8 0 0 0 11.314-11.314l-18.343-18.343 18.343-18.343a8 8 0 0 0 -11.314-11.314l-18.343 18.343-18.343-18.343a8 8 0 0 0 -11.314 11.314l18.343 18.343-18.343 18.343a8 8 0 0 0 0 11.314z"/></svg>